<svg xmlns="http://www.w3.org/2000/svg" xmlns:xlink="http://www.w3.org/1999/xlink" width="500" zoomAndPan="magnify" viewBox="0 0 375 374.999991" height="500" preserveAspectRatio="xMidYMid meet" version="1.2"><defs><clipPath id="43f01c06c6"><path d="M 31.53125 240.199219 L 343.46875 240.199219 L 343.46875 372.992188 L 31.53125 372.992188 Z M 31.53125 240.199219 "/></clipPath><clipPath id="69c2a4b22d"><path d="M 129 112.886719 L 246 112.886719 L 246 346.136719 L 129 346.136719 Z M 129 112.886719 "/></clipPath></defs><g id="d8467df8de"><rect x="0" width="375" y="0" height="374.999991" style="fill:#ffffff;fill-opacity:1;stroke:none;"/><rect x="0" width="375" y="0" height="374.999991" style="fill:#ffffff;fill-opacity:1;stroke:none;"/><g clip-rule="nonzero" clip-path="url(#43f01c06c6)"><path style=" stroke:none;fill-rule:nonzero;fill:#000000;fill-opacity:1;" d="M 343.46875 240.378906 C 339.058594 300.257812 300.9375 350.765625 248.011719 372.992188 L 126.988281 372.992188 C 74.058594 350.765625 35.941406 300.257812 31.53125 240.378906 C 54.183594 304.679688 115.453125 350.773438 187.5 350.773438 C 259.546875 350.773438 320.816406 304.679688 343.46875 240.378906 "/></g><path style=" stroke:none;fill-rule:nonzero;fill:#000000;fill-opacity:1;" d="M 187.5 76.078125 C 234.953125 76.078125 278.46875 92.953125 312.367188 121.027344 C 283.820312 83.234375 238.515625 58.804688 187.5 58.804688 C 136.484375 58.804688 91.179688 83.234375 62.628906 121.027344 C 96.53125 92.953125 140.042969 76.078125 187.5 76.078125 "/><path style=" stroke:none;fill-rule:nonzero;fill:#000000;fill-opacity:1;" d="M 197.765625 18.910156 L 197.765625 4.417969 C 197.765625 3.085938 196.683594 2.003906 195.347656 2.003906 L 179.648438 2.003906 C 178.316406 2.003906 177.234375 3.085938 177.234375 4.417969 L 177.234375 18.910156 L 197.765625 18.910156 "/><path style=" stroke:none;fill-rule:nonzero;fill:#000000;fill-opacity:1;" d="M 187.5 53.976562 C 193.140625 53.976562 198.722656 54.257812 204.246094 54.820312 L 204.246094 26.160156 C 204.246094 24.824219 203.164062 23.742188 201.832031 23.742188 L 173.167969 23.742188 C 171.832031 23.742188 170.753906 24.824219 170.753906 26.160156 L 170.753906 54.820312 C 176.273438 54.257812 181.859375 53.976562 187.5 53.976562 "/><g clip-rule="nonzero" clip-path="url(#69c2a4b22d)"><path style=" stroke:none;fill-rule:evenodd;fill:#000000;fill-opacity:1;" d="M 191.210938 113.792969 C 191.058594 113.53125 191.15625 113.179688 191.425781 113.03125 C 191.699219 112.871094 192.042969 112.972656 192.195312 113.25 C 203.921875 131.769531 214.171875 150.613281 217.898438 170.84375 C 220.445312 184.667969 219.792969 199.035156 215 214.261719 C 210.339844 227.984375 201.707031 239.496094 192.308594 249.910156 C 183.214844 259.988281 173.5 268.972656 167.949219 279.652344 C 161.578125 291.910156 160.734375 306.15625 172.320312 326.710938 C 174.386719 330.457031 176.863281 333.734375 179.699219 336.703125 C 182.613281 339.757812 185.828125 342.480469 189.359375 345.011719 C 189.625 345.1875 189.710938 345.523438 189.546875 345.800781 C 189.386719 346.066406 189.039062 346.136719 188.773438 345.976562 C 184.785156 343.929688 181.078125 341.648438 177.664062 338.941406 C 174.183594 336.175781 171.097656 332.988281 168.351562 329.257812 C 152.226562 306.960938 151.972656 289.933594 158.191406 275.074219 C 163.238281 263.019531 172.902344 252.308594 182.699219 241.28125 C 191.015625 231.933594 199.691406 222.46875 204.3125 210.398438 C 211.1875 193.664062 211.691406 177.660156 208.722656 161.964844 C 205.632812 145.609375 198.972656 129.664062 191.210938 113.792969 Z M 220.585938 333.234375 C 220.828125 333.441406 220.859375 333.792969 220.664062 334.039062 C 220.464844 334.273438 220.105469 334.304688 219.867188 334.113281 C 200.871094 321.019531 195.894531 306.992188 197.371094 292.714844 C 198.265625 284.054688 201.769531 275.261719 206.539062 266.484375 C 209.273438 261.453125 212.421875 256.40625 215.851562 251.476562 C 220.746094 244.46875 226.078125 237.679688 230.640625 230.644531 C 237.808594 219.570312 243.414062 208.453125 242.898438 195.625 C 242.851562 195.316406 243.0625 195.039062 243.371094 194.980469 C 243.679688 194.9375 243.964844 195.15625 244.011719 195.464844 C 247.507812 208.847656 244.667969 222.085938 239.054688 235.136719 C 235.621094 243.136719 231.195312 250.980469 226.5 258.511719 C 223.441406 263.414062 220.191406 268.125 217.242188 272.777344 C 212.625 280.074219 208.546875 287.082031 206.6875 294.382812 C 203.585938 306.566406 206.253906 318.988281 220.585938 333.234375 Z M 176.75 144.570312 C 176.65625 144.265625 176.824219 143.957031 177.121094 143.867188 C 177.417969 143.765625 177.734375 143.941406 177.824219 144.234375 C 181.25 152.484375 183.375 160.121094 183.648438 167.859375 C 183.933594 175.921875 182.03125 183.863281 177.6875 192.507812 C 174.878906 197.804688 171.253906 203.363281 167.167969 208.996094 C 163.578125 213.953125 159.769531 219.042969 155.929688 224.035156 C 152.175781 228.917969 148.386719 233.671875 145.285156 238.574219 C 142.050781 243.695312 139.34375 248.726562 138.082031 254.082031 C 135.972656 263.03125 137.316406 272.292969 145.050781 282.488281 C 145.265625 282.707031 145.257812 283.074219 145.03125 283.292969 C 144.804688 283.5 144.449219 283.5 144.234375 283.265625 C 128.96875 270.246094 127.535156 255.71875 132.082031 241.222656 C 134.65625 233.015625 139.367188 224.824219 145 217.113281 C 148.878906 211.804688 153.328125 206.84375 157.523438 202.015625 C 161.917969 196.941406 166.226562 192.230469 169.515625 187.507812 C 174.402344 180.820312 177.039062 174.382812 178.015625 167.550781 C 179.058594 160.296875 178.457031 152.851562 176.75 144.570312 Z M 176.75 144.570312 "/></g></g></svg>