<svg xmlns="http://www.w3.org/2000/svg" xmlns:xlink="http://www.w3.org/1999/xlink" width="500" zoomAndPan="magnify" viewBox="0 0 375 374.999991" height="500" preserveAspectRatio="xMidYMid meet" version="1.2"><defs><clipPath id="6f7a62f548"><path d="M 31.53125 240.199219 L 343.46875 240.199219 L 343.46875 372.992188 L 31.53125 372.992188 Z M 31.53125 240.199219 "/></clipPath><clipPath id="73ed3d050c"><path d="M 129 112.886719 L 246 112.886719 L 246 346 L 129 346 Z M 129 112.886719 "/></clipPath></defs><g id="0292f59401"><g clip-rule="nonzero" clip-path="url(#6f7a62f548)"><path style=" stroke:none;fill-rule:nonzero;fill:#cfcd00;fill-opacity:1;" d="M 343.46875 240.378906 C 339.058594 300.257812 300.9375 350.765625 248.011719 372.992188 L 126.988281 372.992188 C 74.058594 350.765625 35.941406 300.257812 31.53125 240.378906 C 54.183594 304.679688 115.453125 350.773438 187.5 350.773438 C 259.546875 350.773438 320.816406 304.679688 343.46875 240.378906 "/></g><path style=" stroke:none;fill-rule:nonzero;fill:#cfcd00;fill-opacity:1;" d="M 187.5 76.078125 C 234.953125 76.078125 278.46875 92.953125 312.367188 121.027344 C 283.820312 83.234375 238.515625 58.804688 187.5 58.804688 C 136.484375 58.804688 91.179688 83.234375 62.628906 121.027344 C 96.53125 92.953125 140.042969 76.078125 187.5 76.078125 "/><path style=" stroke:none;fill-rule:nonzero;fill:#cfcd00;fill-opacity:1;" d="M 197.765625 18.910156 L 197.765625 4.417969 C 197.765625 3.085938 196.683594 2.003906 195.347656 2.003906 L 179.648438 2.003906 C 178.316406 2.003906 177.234375 3.085938 177.234375 4.417969 L 177.234375 18.910156 L 197.765625 18.910156 "/><path style=" stroke:none;fill-rule:nonzero;fill:#cfcd00;fill-opacity:1;" d="M 187.5 53.976562 C 193.140625 53.976562 198.722656 54.257812 204.246094 54.820312 L 204.246094 26.160156 C 204.246094 24.824219 203.164062 23.742188 201.832031 23.742188 L 173.167969 23.742188 C 171.832031 23.742188 170.753906 24.824219 170.753906 26.160156 L 170.753906 54.820312 C 176.273438 54.257812 181.859375 53.976562 187.5 53.976562 "/><g clip-rule="nonzero" clip-path="url(#73ed3d050c)"><path style=" stroke:none;fill-rule:evenodd;fill:#cfcd00;fill-opacity:1;" d="M 191.179688 113.792969 C 191.027344 113.527344 191.125 113.179688 191.394531 113.03125 C 191.667969 112.871094 192.011719 112.972656 192.160156 113.25 C 203.882812 131.742188 214.128906 150.554688 217.855469 170.757812 C 220.398438 184.558594 219.75 198.902344 214.957031 214.109375 C 210.300781 227.808594 201.671875 239.304688 192.277344 249.703125 C 183.1875 259.769531 173.476562 268.738281 167.929688 279.398438 C 161.5625 291.640625 160.71875 305.867188 172.296875 326.386719 C 174.367188 330.128906 176.839844 333.398438 179.675781 336.363281 C 182.585938 339.417969 185.800781 342.132812 189.332031 344.660156 C 189.59375 344.835938 189.679688 345.171875 189.519531 345.449219 C 189.355469 345.714844 189.007812 345.785156 188.742188 345.625 C 184.757812 343.582031 181.050781 341.300781 177.640625 338.597656 C 174.160156 335.839844 171.074219 332.65625 168.332031 328.929688 C 152.214844 306.671875 151.960938 289.667969 158.175781 274.828125 C 163.21875 262.792969 172.878906 252.101562 182.671875 241.085938 C 190.984375 231.753906 199.65625 222.304688 204.277344 210.253906 C 211.144531 193.542969 211.648438 177.5625 208.683594 161.890625 C 205.59375 145.558594 198.9375 129.640625 191.179688 113.792969 Z M 220.542969 332.902344 C 220.78125 333.109375 220.8125 333.457031 220.617188 333.707031 C 220.417969 333.941406 220.0625 333.96875 219.820312 333.78125 C 200.835938 320.707031 195.863281 306.699219 197.335938 292.441406 C 198.230469 283.796875 201.734375 275.019531 206.5 266.253906 C 209.234375 261.230469 212.378906 256.191406 215.808594 251.269531 C 220.699219 244.269531 226.03125 237.492188 230.589844 230.46875 C 237.753906 219.410156 243.359375 208.308594 242.839844 195.5 C 242.796875 195.191406 243.007812 194.914062 243.316406 194.855469 C 243.621094 194.8125 243.910156 195.03125 243.953125 195.339844 C 247.449219 208.703125 244.609375 221.921875 239 234.953125 C 235.566406 242.941406 231.144531 250.769531 226.449219 258.292969 C 223.394531 263.1875 220.148438 267.890625 217.199219 272.535156 C 212.582031 279.824219 208.507812 286.820312 206.648438 294.109375 C 203.550781 306.277344 206.214844 318.675781 220.542969 332.902344 Z M 176.722656 144.523438 C 176.632812 144.214844 176.800781 143.910156 177.097656 143.824219 C 177.394531 143.71875 177.710938 143.894531 177.800781 144.1875 C 181.222656 152.425781 183.347656 160.050781 183.621094 167.777344 C 183.90625 175.824219 182.007812 183.757812 177.660156 192.390625 C 174.855469 197.675781 171.234375 203.226562 167.148438 208.851562 C 163.558594 213.800781 159.753906 218.886719 155.914062 223.867188 C 152.160156 228.746094 148.378906 233.492188 145.277344 238.382812 C 142.042969 243.496094 139.335938 248.523438 138.074219 253.867188 C 135.96875 262.808594 137.3125 272.050781 145.042969 282.234375 C 145.257812 282.453125 145.246094 282.816406 145.023438 283.035156 C 144.796875 283.242188 144.441406 283.242188 144.226562 283.007812 C 128.96875 270.007812 127.535156 255.503906 132.078125 241.027344 C 134.652344 232.835938 139.363281 224.65625 144.992188 216.957031 C 148.867188 211.65625 153.316406 206.703125 157.507812 201.882812 C 161.898438 196.816406 166.207031 192.113281 169.496094 187.394531 C 174.378906 180.71875 177.015625 174.292969 177.992188 167.46875 C 179.03125 160.226562 178.433594 152.789062 176.722656 144.523438 Z M 176.722656 144.523438 "/></g></g></svg>